<?xml version="1.0" encoding="UTF-8" standalone="no"?>
<!DOCTYPE svg PUBLIC "-//W3C//DTD SVG 1.1//EN" "http://www.w3.org/Graphics/SVG/1.1/DTD/svg11.dtd">
<svg version="1.1" xmlns="http://www.w3.org/2000/svg" xmlns:xlink="http://www.w3.org/1999/xlink" preserveAspectRatio="xMidYMid meet" viewBox="0 0 400 100" width="400" height="100"><defs><path d="M48.35 40.41L71.22 43.38L54.67 57.75L58.57 78.06L38.12 68.47L17.67 78.06L21.58 57.75L5.03 43.38L27.9 40.41L38.12 21.94L48.35 40.41Z" id="b127iJrCt2"></path><path d="M130.22 40.41L153.09 43.38L136.54 57.75L140.45 78.06L120 68.47L99.54 78.06L103.45 57.75L86.9 43.38L109.77 40.41L120 21.94L130.22 40.41Z" id="c1DF8BNiOq"></path><path d="M210.23 40.41L233.09 43.38L216.55 57.75L220.45 78.06L200 68.47L179.55 78.06L183.45 57.75L166.91 43.38L189.77 40.41L200 21.94L210.23 40.41Z" id="g2EpT4eVHp"></path><path d="M292.97 40.41L315.84 43.38L299.29 57.75L303.2 78.06L282.75 68.47L262.29 78.06L266.2 57.75L249.65 43.38L272.52 40.41L282.75 21.94L292.97 40.41Z" id="h3VyrWzlHH"></path><path d="M373.35 40.41L396.22 43.38L379.67 57.75L383.57 78.06L363.12 68.47L342.67 78.06L346.58 57.75L330.03 43.38L352.9 40.41L363.12 21.94L373.35 40.41Z" id="aj4cEpKB0"></path></defs><g><g><g><use xlink:href="#b127iJrCt2" opacity="1" fill="#ffeb3b" fill-opacity="1"></use><g><use xlink:href="#b127iJrCt2" opacity="1" fill-opacity="0" stroke="#999999" stroke-width="3" stroke-opacity="1"></use></g></g><g><use xlink:href="#c1DF8BNiOq" opacity="1" fill="#ffeb3b" fill-opacity="1"></use><g><use xlink:href="#c1DF8BNiOq" opacity="1" fill-opacity="0" stroke="#999999" stroke-width="3" stroke-opacity="1"></use></g></g><g><use xlink:href="#g2EpT4eVHp" opacity="1" fill="#ffeb3b" fill-opacity="1"></use><g><use xlink:href="#g2EpT4eVHp" opacity="1" fill-opacity="0" stroke="#999999" stroke-width="3" stroke-opacity="1"></use></g></g><g><use xlink:href="#h3VyrWzlHH" opacity="1" fill="#ffeb3b" fill-opacity="1"></use><g><use xlink:href="#h3VyrWzlHH" opacity="1" fill-opacity="0" stroke="#999999" stroke-width="3" stroke-opacity="1"></use></g></g><g><use xlink:href="#aj4cEpKB0" opacity="1" fill="#ffeb3b" fill-opacity="1"></use><g><use xlink:href="#aj4cEpKB0" opacity="1" fill-opacity="0" stroke="#999999" stroke-width="3" stroke-opacity="1"></use></g></g></g></g></svg>